<svg xmlns="http://www.w3.org/2000/svg" xmlns:xlink="http://www.w3.org/1999/xlink" width="500" zoomAndPan="magnify" viewBox="0 0 375 374.999991" height="500" preserveAspectRatio="xMidYMid meet" version="1.0"><defs><g/></defs><g fill="#0365e8" fill-opacity="1"><g transform="translate(16.078129, 249.749984)"><g><path d="M 118.03125 -57.25 C 118.03125 -43.820312 115.644531 -32.5625 110.875 -23.46875 C 106.113281 -14.382812 99.125 -7.734375 89.90625 -3.515625 L 117.40625 27.1875 L 86.390625 27.1875 L 65.453125 1.5625 L 63.65625 1.5625 C 46.164062 1.5625 32.734375 -3.515625 23.359375 -13.671875 C 13.984375 -23.828125 9.296875 -38.40625 9.296875 -57.40625 C 9.296875 -76.414062 13.992188 -90.929688 23.390625 -100.953125 C 32.796875 -110.984375 46.269531 -116 63.8125 -116 C 81.363281 -116 94.785156 -110.945312 104.078125 -100.84375 C 113.378906 -90.738281 118.03125 -76.207031 118.03125 -57.25 Z M 34.6875 -57.25 C 34.6875 -44.5 37.101562 -34.894531 41.9375 -28.4375 C 46.78125 -21.976562 54.019531 -18.75 63.65625 -18.75 C 82.976562 -18.75 92.640625 -31.582031 92.640625 -57.25 C 92.640625 -82.976562 83.03125 -95.84375 63.8125 -95.84375 C 54.175781 -95.84375 46.910156 -92.597656 42.015625 -86.109375 C 37.128906 -79.628906 34.6875 -70.007812 34.6875 -57.25 Z M 34.6875 -57.25 "/></g></g></g><g fill="#0365e8" fill-opacity="1"><g transform="translate(143.400108, 249.749984)"><g><path d="M 93.109375 0 L 69.28125 0 L 69.28125 -51 C 69.28125 -57.300781 68.160156 -62.023438 65.921875 -65.171875 C 63.679688 -68.328125 60.113281 -69.90625 55.21875 -69.90625 C 48.550781 -69.90625 43.734375 -67.675781 40.765625 -63.21875 C 37.804688 -58.769531 36.328125 -51.390625 36.328125 -41.078125 L 36.328125 0 L 12.5 0 L 12.5 -87.328125 L 30.703125 -87.328125 L 33.90625 -76.15625 L 35.234375 -76.15625 C 37.890625 -80.375 41.546875 -83.5625 46.203125 -85.71875 C 50.859375 -87.882812 56.15625 -88.96875 62.09375 -88.96875 C 72.25 -88.96875 79.957031 -86.21875 85.21875 -80.71875 C 90.476562 -75.226562 93.109375 -67.300781 93.109375 -56.9375 Z M 93.109375 0 "/></g></g></g><g fill="#0365e8" fill-opacity="1"><g transform="translate(248.53838, 249.749984)"><g><path d="M 84.28125 0 L 76 -27.1875 L 34.375 -27.1875 L 26.09375 0 L 0 0 L 40.296875 -114.671875 L 69.90625 -114.671875 L 110.375 0 Z M 70.21875 -47.484375 C 62.5625 -72.117188 58.25 -86.050781 57.28125 -89.28125 C 56.320312 -92.507812 55.632812 -95.0625 55.21875 -96.9375 C 53.5 -90.269531 48.578125 -73.785156 40.453125 -47.484375 Z M 70.21875 -47.484375 "/></g></g></g></svg>